# xmcd
#
# Track frame offsets:
#	150
#	22210
#	39219
#	58160
#	74845
#	90707
#	107329
#	127767
#	144077
#	169591
#	187672
#
# Disc length: 2821 seconds
#
# Revision: 0
# Processed by: cddbd v1.4PL0 Copyright (c) Steve Scherf et al.
# Submitted via: dBpowerAMP V4.0
#
DISCID=890b030b
DTITLE=Johnny Hallyday - vol 28  Rock n roll attitude
DYEAR=1900
DGENRE=
TTITLE0=Le chanteur abandonne
TTITLE1=Qui ose aimer
TTITLE2=Quelque chose de Tennessee
TTITLE3=Equipe de nuit
TTITLE4=La blouse de l infirmiere
TTITLE5=Rock n roll attitude
TTITLE6=Seul mais pas solitaire
TTITLE7=Parker connais pas
TTITLE8=Aimer vivre
TTITLE9=Pendue a mon cou
TTITLE10=Rock n roll attitude
EXTD=
EXTT0=
EXTT1=
EXTT2=
EXTT3=
EXTT4=
EXTT5=
EXTT6=
EXTT7=
EXTT8=
EXTT9=
EXTT10=
PLAYORDER=
